<?xml version="1.0" encoding="utf-8"?>
<!-- Generator: Adobe Illustrator 25.3.0, SVG Export Plug-In . SVG Version: 6.00 Build 0)  -->
<svg version="1.1" id="Layer_1" xmlns="http://www.w3.org/2000/svg" xmlns:xlink="http://www.w3.org/1999/xlink" x="0px" y="0px"
	 viewBox="0 0 1200 1200" style="enable-background:new 0 0 1200 1200;" xml:space="preserve">
<g>
	<path d="M1194,886.9h-34.5h-17.9c-1.6-8.7-4.2-14.8-7.6-18.2c-5.6-5.6-15.2-8.5-28.3-8.5c-13,0-22,2.2-27.1,6.5
		c-3.8,3.3-5.8,7.8-5.8,13.4c0,7.9,11,14.3,32.9,19.1c24.9,5.4,42.8,10.1,53.8,13.9c2.9,1.1,5.4,2,7.2,2.9
		c22.2,10.5,33.2,26.4,33.2,47.7c0,26-10.8,45-32.3,56.9c-2.7,1.5-5.2,2.7-8.1,4c-13.9,6-30.1,9-48.4,9c-27.3,0-49.3-4.9-66.1-14.4
		c-10.6-6.1-18.5-13.9-23.7-23.2c-5.3-9.3-7.9-20.2-7.9-32.6h54.9c0,9.4,3.4,16.8,10.1,21.8c6.7,5.2,18.1,8,34.1,8
		c12.1,0,21.1-2.5,27.1-7.6c4.7-4,6.9-8.3,6.9-13.4c0-8.5-10.8-15.2-32.3-19.9c-32.1-6.9-52.4-12.5-60.7-16.4
		c-22-10.3-32.9-26.2-32.9-48.2c0-17.7,5.6-32.7,17.1-44.9c14.4-15.3,36.1-22.9,64.8-22.9c23.6,0,42.6,3.4,56.9,10.1
		c1.3,0.5,2.4,1.1,3.4,1.8c10.3,5.6,18,13,23.2,22.2C1191.4,863,1194,874.1,1194,886.9z"/>
	<polygon points="883.8,436.1 1032,683 883.8,683 793.9,683 652.4,447.1 545.1,268.5 652.4,204.1 719.9,163.5 	"/>
	<path d="M991.4,929.3v101.3h-49.3v-11.2c-16.6,10.8-36.5,17.2-57.8,17.2c-0.2,0-0.4,0-0.6,0c-58.9-0.4-106.7-48.4-106.7-107.3
		c0-58.8,47.8-106.9,106.7-107.2c0.2,0,0.4,0,0.6,0c21.3,0,41.2,6.3,57.8,17.1v-11.7h49.3V929.3z M942.1,940.5v-22.4
		c-5.2-27.1-29.2-47.7-57.8-47.7c-0.2,0-0.4,0-0.6,0c-32.3,0.2-58.5,26.6-58.5,58.9c0,32.3,26.2,58.7,58.5,59c0.2,0,0.4,0,0.6,0
		C912.9,988.3,936.9,967.6,942.1,940.5z"/>
	<path d="M759.9,929.3v101.3h-49.3v-11.2c-16.8,10.8-36.5,17.2-57.8,17.2c-0.2,0-0.4,0-0.5,0c-58.9-0.4-106.7-48.4-106.7-107.3
		c0-58.8,47.8-106.9,106.7-107.2c0.2,0,0.4,0,0.5,0c21.3,0,41,6.3,57.8,17.1v-81.4h49.3V929.3z M710.7,940.5v-22.4
		c-5.2-27.1-29.3-47.7-57.8-47.7c-0.2,0-0.4,0-0.5,0c-32.3,0.2-58.5,26.6-58.5,58.9c0,32.3,26.2,58.7,58.5,59c0.2,0,0.4,0,0.5,0
		C681.4,988.3,705.4,967.6,710.7,940.5z"/>
	<polygon points="652.4,585.9 710.5,683 652.4,683 472.5,683 340.4,463.2 334.6,453.6 340.4,450.2 509.6,348.3 	"/>
	<rect x="472.7" y="822.1" width="53.6" height="208.5"/>
	<rect x="472.7" y="758.9" width="53.6" height="47.1"/>
	<path d="M448.2,929.3v101.3h-49.3v-11.2c-16.8,10.8-36.6,17.2-58,17.2c-0.2,0-0.4,0-0.5,0c-58.9-0.4-106.7-48.4-106.7-107.3
		c0-58.8,47.8-106.9,106.7-107.2c0.2,0,0.4,0,0.5,0c21.3,0,41.2,6.3,58,17.1v-81.4h49.3V929.3z M398.9,940.5v-22.4
		c-5.2-27.1-29.2-47.7-58-47.7c-0.2,0-0.4,0-0.5,0c-32.3,0.2-58.5,26.6-58.5,58.9c0,32.3,26.2,58.7,58.5,59c0.2,0,0.4,0,0.5,0
		C369.6,988.3,393.6,967.6,398.9,940.5z"/>
	<polygon points="340.4,601.8 389.1,683 340.4,683 151,683 124.3,638.4 299.2,533.4 	"/>
	<path d="M214.4,929.3v101.3h-49.3v-11.2c-16.8,10.8-36.7,17.2-58,17.2c-0.2,0-0.4,0-0.6,0C47.9,1036.2,0.1,988.1,0.1,929.3
		c0-58.8,47.8-106.9,106.5-107.2c0.2,0,0.4,0,0.6,0c21.3,0,41.2,6.3,58,17.1v-11.7h49.3V929.3z M165.1,940.5v-22.4
		c-5.2-27.1-29.2-47.7-58-47.7c-0.2,0-0.4,0-0.6,0c-32.1,0.2-58.3,26.6-58.3,58.9c0,32.3,26.2,58.7,58.3,59c0.2,0,0.4,0,0.6,0
		C135.8,988.3,159.9,967.6,165.1,940.5z"/>
</g>
</svg>
