<?xml version="1.0" encoding="utf-8"?>
<!-- Generator: Adobe Illustrator 25.3.0, SVG Export Plug-In . SVG Version: 6.00 Build 0)  -->
<svg version="1.1" id="Capa_1" xmlns="http://www.w3.org/2000/svg" xmlns:xlink="http://www.w3.org/1999/xlink" x="0px" y="0px"
	 viewBox="0 0 60 60" style="enable-background:new 0 0 60 60;" xml:space="preserve">
<style type="text/css">
	.st0{fill-rule:evenodd;clip-rule:evenodd;}
	.st1{fill-rule:evenodd;clip-rule:evenodd;fill:#E30613;}
</style>
<g>
	<path class="st0" d="M36.7,35.4c0.1,0.2,0.8,0.1,1,0c0.3-0.1,0.2-0.3,0.2-0.8c0-0.3,0-0.6,0-0.9c0-0.2,0-0.3,0-0.5
		c0-1.2,0.2-2.2,0.8-2.9c0.4-0.5,0.9-0.6,0.9-0.7c0.3-0.1,0.5,0,0.5,0.2c0.1,0.3,0,0.6-0.2,0.8c-0.3,0.3-0.5,0.2-0.8,0.2
		c-0.2,0-0.2,0.1,0,0.3c0.8,0.7,2,0.5,2.1,0.5c1.4-0.2,2.2-1.1,2.4-1.2c0.2,0-0.1,0.7,0.5,1c0.7,0.3,2.2,0.2,3-0.5l0.5-0.4
		c0.2-0.2,0,0.5,1,1c1.1,0.6,3.1,0.1,3.2-1.5c0-0.5-0.4-0.7,0.1-0.8c0.7-0.1,0.5-0.1,1.1,1.2c0.2,0.3,0.3,0.6,0.3,0.6
		c0.1,0.2,0.2,0.5,0.6,0.4c0.4-0.1,1.2-1,1.3-1l0.4-0.5c0-0.1,0.1,0,0.2,0.1l1.1,1.3c0.1,0.1,0.3,0.2,0.5,0.2c0.2,0,0.5-0.1,0.8-0.3
		c0.6-0.4,1-0.7,1.3-1.1c0.3-0.4,0.4-0.6,0.3-0.7c-0.3-0.3-0.8,0.4-1.2,0.6c-1,0.5-1.6-1.3-2-1.5c-0.3-0.2-0.8,0-1.3,0.6l-0.5,0.5
		c-0.2,0.2-0.3-0.5-0.5-0.8c-0.1-0.2-0.2-0.3-0.3-0.4c-0.3-0.1-1.9,0.4-2.9,0.4l-0.8,0c-0.2,0,0.1,0.4,0.1,0.6
		c0.1,0.6-0.1,1.1-0.4,1.2c-0.6,0.2-0.8-0.8-0.7-1.1c0.1-0.8,1-0.9,1-1c0.2-0.1,0-0.2-0.4-0.3c-1.4-0.2-1.9,1.4-3.5,2.2
		c-1.2,0.7-0.9-0.2-0.9-0.7c-0.1-1.2,0.4-1.3-1.2-1.3c-0.1,0-0.5,0-0.6,0.2c-0.2,0.4,0.1,0.5-0.2,0.9c-0.5,0.5-1,0.9-1.5,1
		c-0.8,0.2-0.4-0.2-0.4-0.5c0.1-0.2,0.1-0.4,0.1-0.5c0-0.6-0.7-1.2-1.9-1.1c-1.1,0.2-1.9,1.1-1.9,1.1c0,0,0,0-0.1,0h0
		c0,0,0-0.1,0-0.4c0-0.6,0.1-0.8-0.4-0.8c-0.6,0-0.7,0.1-0.8,0.2c-0.2,0.2-0.3,0.5-0.4,0.7c-0.5,0.6-0.8,0.9-1,0.8
		c-0.1-0.1-1.5-1.6-1.8-1.7c-0.3-0.1-0.5,0-0.7,0.3l-0.9,1.1c-0.1,0.1-0.2,0.1-0.3-0.1l-0.9-1.1c-0.2-0.2-0.6-0.4-1,0.1l-0.9,1.1
		c-0.1,0.1-0.1,0-0.2-0.1l-1-1.2c0,0-0.2-0.2-0.5-0.1c-0.2,0.1-0.8,0.7-1.4,1.2c-0.2,0.2-0.4,0.4-0.6,0.5c0,0,0,0-0.1,0.1
		c-0.2,0.1-0.4-0.3-0.5-0.5c-0.3-0.4-0.6-0.6-0.7-0.6c-0.6-0.2-0.5,0.7-0.6,1c-0.3,0.7-1.2,0.8-1.2,0c0-0.9,1.1-1.3,1.2-1.3
		c0.1-0.1,0.3-0.2-0.1-0.3c-0.7-0.1-1.5,0.2-2.3,0.7l-1.4,0.9c-0.6,0.4-1.1-1.1-1.2-1.3c-0.1-0.1-0.2-0.4-0.6-0.3
		c-0.2,0-0.5,0.3-0.9,0.6l-0.7,0.7c0,0-0.1,0-0.1,0c0-0.1-0.1-0.5-0.1-1.4c0-0.5,0-1,0-1.6c0-0.3,0-0.3,0-1c0-0.1,0-0.1,0-0.2
		c0-0.2-0.2-0.2-0.6-0.2c-0.4,0-0.7-0.1-0.7,0.2l-0.1,2.3c-0.1,1.5,0,2.4,0.2,3c0.1,0.4,0.3,0.7,0.6,0.7c0.8,0.1,1.4-1,1.6-1.1
		c0.1-0.1,0.2-0.2,0.4,0c0.1,0.2,0.2,0.3,0.3,0.5c0.5,0.6,0.6,0.6,1.1,0.6c0.8,0,1.6-0.8,1.8-0.9c0.2-0.1,0.2,0.1,0.2,0.2
		c0.2,0.5,0.9,0.9,1.7,0.7c1-0.2,1.1-0.8,1.4-0.7c0.2,0.1,0.5,0.8,1,0.7c0.3,0,1-0.7,1.5-1c0.3-0.2,0.5-0.4,0.6-0.4
		c0.3-0.2,0.3,0.2,1.1,1.1c0.3,0.3,0.6,0.6,1.2,0l0.9-0.9c0.2-0.2,0.5,0.5,1.2,1.1c0,0,0.1,0.1,0.1,0.1c0.2,0.1,0.5,0,0.9-0.4
		l0.7-0.8c0.1-0.1,0.2-0.1,0.3,0c0.4,0.4,0.9,1.2,1.4,1.2c0.4,0,0.9-0.2,1.5-0.7l0.6-0.5c0.2-0.2,0.1,0.4,0.1,1.5c0,0.4,0,0.8,0,1.3
		C36.5,34.4,36.6,35.4,36.7,35.4L36.7,35.4z"/>
	<path class="st0" d="M5.6,32.9c0.8,0.1,1.6,0.1,2.5,0c0.8-0.1,1.4-0.2,1.9-0.4c1.5-0.5,2.6-1.2,3.2-1.9c0.4-0.5-0.1-0.1-0.4,0
		c-1,0.4-2,0.6-3,0.8C8.8,31.5,9,31.5,9,31.1c0-1.6,0.1-3.2,0-4.8c0-0.4,0-0.4,0.5-0.4c0.9,0.1,1.8,0.3,2.8,0.6
		c0.2,0.1,1,0.5,0.5-0.2c-1-1.5-4.1-1.8-5.1-1.9c-6.3-0.2-9.5,3.8-6.6,6.5C2.2,32,3.7,32.6,5.6,32.9L5.6,32.9z"/>
	<path class="st1" d="M4.4,25.9c0.1,0,0.2,0,0.3,0c0.2,0,0.2,0.1,0.2,0.2l0,5.2c0,0.1,0,0.1-0.1,0.1c-0.1,0.1-0.9-0.1-1.3-0.2
		c-0.5-0.2-1.7-0.6-2.1-1.6c-0.3-0.5-0.2-1.1-0.2-1.3C1.5,27,3,26.1,4.4,25.9L4.4,25.9z"/>
	<path class="st0" d="M44.3,28c0.2,0.1,1.2,0.1,1.3-0.6c0.1-0.7-1-1.1-1.7-0.6C43.5,27.2,43.4,27.8,44.3,28L44.3,28z"/>
</g>
</svg>
