<?xml version="1.0" encoding="utf-8"?>
<!-- Generator: Adobe Illustrator 25.3.0, SVG Export Plug-In . SVG Version: 6.00 Build 0)  -->
<svg version="1.1" id="Capa_1" xmlns="http://www.w3.org/2000/svg" xmlns:xlink="http://www.w3.org/1999/xlink" x="0px" y="0px"
	 viewBox="0 0 60 60" style="enable-background:new 0 0 60 60;" xml:space="preserve">
<style type="text/css">
	.st0{fill:#020203;}
</style>
<g id="g3284" transform="matrix(3.3946588,0,0,3.3946588,-20.16715,-25.345386)">
	<g id="g3222">
		<path id="path3086" class="st0" d="M12.6,17l0-1.8l1.7-0.6L12.6,14l0-1.8l-1,1.4l-1.7-0.5l1,1.5l-1,1.5l1.7-0.6L12.6,17z"/>
		<path id="path3088" class="st0" d="M12.8,18.9h3.1l3.9-4.3l-3.9-4.3h-3l3.6,4.3L12.8,18.9z"/>
	</g>
	<g id="g3274">
		<path id="path3226" class="st0" d="M5.9,21.2c0-0.6,0.5-1.1,1.1-1.1c0.4,0,0.9,0.5,0.9,0.5l-0.5,0.3c0,0-0.1-0.2-0.4-0.2
			c-0.3,0-0.5,0.3-0.5,0.5c0,0.3,0.2,0.5,0.5,0.5c0.2,0,0.5-0.2,0.5-0.2l0.5,0.3c0,0-0.3,0.4-0.9,0.4C6.5,22.2,5.9,21.9,5.9,21.2
			L5.9,21.2z"/>
		<path id="path3231" class="st0" d="M9.2,20.1c-0.6,0-1.1,0.5-1.1,1.1c0,0.6,0.5,1.1,1.1,1.1s1.1-0.5,1.1-1.1
			C10.3,20.6,9.8,20.1,9.2,20.1z M9.2,20.6c0.3,0,0.5,0.2,0.5,0.5c0,0.3-0.2,0.5-0.5,0.5c-0.3,0-0.5-0.2-0.5-0.5
			C8.7,20.9,8.9,20.6,9.2,20.6z"/>
		<path id="rect3234" class="st0" d="M10.7,20.1v2h0.5v-1.1l0.9,1.1h0.5v-2h-0.5v1.2l-0.8-1.2H10.7z"/>
		<path id="path3239" class="st0" d="M13,20.1l0.7,2h0.8l0.7-2h-0.6l-0.5,1.6l-0.5-1.6H13z"/>
		<path id="path3246" class="st0" d="M15.6,20.1v2h1.6v-0.5h-1.1v-0.3h1v-0.4h-1v-0.3h1.1v-0.5H15.6z"/>
		<path id="path3258" class="st0" d="M22,20.1v2h1.6v-0.5h-1.1v-0.3h1v-0.4h-1v-0.3h1.1v-0.5H22z"/>
		<path id="rect3260" class="st0" d="M17.8,20.2v2h0.5v-0.8h0.3l0.4,0.8h0.6l-0.4-0.8c0.5-0.3,0.4-1-0.2-1.1H17.8z M18.2,20.7h0.5
			c0.2,0,0.2,0.3,0,0.3h-0.5V20.7z"/>
		<path id="path3272" class="st0" d="M19.8,21.9c0,0.1,0.5,0.4,1,0.4c0.4,0,0.8-0.2,0.8-0.6c0-0.5-0.6-0.6-0.6-0.6s-0.5,0-0.5-0.2
			c0-0.1,0.1-0.2,0.3-0.2c0.2,0,0.5,0.2,0.5,0.2l0.3-0.4c0,0-0.4-0.3-0.8-0.3c-0.4,0-0.9,0.2-0.9,0.7c0,0.4,0.6,0.6,0.6,0.6
			s0.6,0.1,0.6,0.3c0,0.1-0.2,0.2-0.4,0.2c-0.3,0-0.6-0.3-0.6-0.3L19.8,21.9z"/>
	</g>
</g>
</svg>
