<?xml version="1.0" encoding="utf-8"?>
<!-- Generator: Adobe Illustrator 25.3.0, SVG Export Plug-In . SVG Version: 6.00 Build 0)  -->
<svg version="1.1" xmlns="http://www.w3.org/2000/svg" xmlns:xlink="http://www.w3.org/1999/xlink" x="0px" y="0px"
	 viewBox="0 0 223.7 189.1" style="enable-background:new 0 0 223.7 189.1;" xml:space="preserve">
<g>
	<g>
		<path d="M143.3,145.3c9,3.5,18.9,5.4,29.5,5.4h10.2l0.6-24.8h40.2v63.2h-45.5c-24.8,0-47.8-6.5-66.7-17.4l-0.6,0.4
			c-18.6,10.2-41.1,16.2-65.4,16.2H0v-62.6h40.2v25.7H51c10.5,0,20.5-1.9,29.4-5.2l0.7-0.2c-12-15-19-32.8-19-51.7
			c0-18.6,6.7-35.9,18.3-50.4l-0.9-0.4c-8.7-3.2-18.3-5-28.5-5H40.8l-0.6,65.1H0V0h45.5c24.4,0,47,6.3,65.7,16.9l0.9,0.6
			c18.7-10.4,41.5-16.5,66-16.5h45.5v55.9h-40.2v-19h-10.8c-10.8,0-21,2-30.1,5.5l0.6,0.7c11.7,14.8,18.4,32.3,18.4,50.9
			c0,18.3-6.6,35.4-17.9,49.8L143.3,145.3z M111.4,67.2c-5.3,7.9-8.4,17-8.4,26.6c0,10.2,3.4,19.8,9.2,28.1l0.4-0.5
			c5.1-7.8,8-16.7,8-26.1c0-9.9-3.2-19.3-8.8-27.5L111.4,67.2z"/>
		<g>
			<path d="M203.6,91.8"/>
			<polygon points="203.6,65.3 208.8,81.1 224.4,75.3 215.3,89.2 229.6,97.8 213,99.4 215.2,115.9 203.6,103.9 192.1,115.9 
				194.3,99.4 177.7,97.8 191.9,89.2 182.8,75.3 198.4,81.1 			"/>
		</g>
	</g>
</g>
</svg>
