<?xml version="1.0" encoding="utf-8"?>
<!-- Generator: Adobe Illustrator 25.3.0, SVG Export Plug-In . SVG Version: 6.00 Build 0)  -->
<svg version="1.1" id="Capa_1" xmlns="http://www.w3.org/2000/svg" xmlns:xlink="http://www.w3.org/1999/xlink" x="0px" y="0px"
	 viewBox="0 0 164.6 54.2" style="enable-background:new 0 0 164.6 54.2;" xml:space="preserve">
<style type="text/css">
	.st0{fill-rule:evenodd;clip-rule:evenodd;fill:#FFFFFF;}
	.st1{fill-rule:evenodd;clip-rule:evenodd;fill:#253358;}
	.st2{fill-rule:evenodd;clip-rule:evenodd;fill:#E30613;}
</style>
<path class="st0" d="M7.3,1.2h33.8c4,0,7.2,3.1,7.2,7v0.5c0,4-3.2,7.2-7.2,7.2H7.3c-4,0-7.3-3.2-7.3-7.2V8.2C0,4.2,3.3,1.2,7.3,1.2
	L7.3,1.2z"/>
<path class="st1" d="M0,27c0-3.8,3.6-6.7,7.6-6.7h30c4,0,7.2,3.2,7.2,7.2v0.4c0,4-3.2,7.2-7.2,7.2H17.2c-1,0-1.9,0.9-1.9,1.9v10
	c0,4-3.2,7.2-7.2,7.2H7.2C3.2,54.2,0,51,0,47V27L0,27z"/>
<path class="st1" d="M52.9,47L52.8,7.3c0-4,3.1-7.3,7.2-7.3h0.8c4,0,7.2,3.3,7.2,7.3L68.1,47c0,4-3.2,7.2-7.2,7.2H60
	C56,54.2,52.9,51,52.9,47L52.9,47z"/>
<path class="st1" d="M144.2,4.7l16,26.1c3.6,5.6,4.4,7,4.4,11.3c0,6.5-6,11.5-11.3,11.5h-21.7c-4,0-7.2-2.7-7.2-6.7v-0.4
	c0-4,3.2-7.2,7.2-7.2H145c0.8,0,1.3-0.1,1.5-0.6c0.3-0.6,0.1-0.9-0.3-1.5L136.8,22c-0.1-0.3-0.3-0.6-0.5-0.6c-0.4,0-0.5,0.4-0.6,0.6
	l-14.5,24.9c-2.3,4-5,6.8-8.8,6.8H84.5c-5.4,0-10.6-5.1-10.6-10.5V7.3c0-4,3.2-7.2,7.2-7.2h0.9c4,0,7.2,3.2,7.2,7.2v29.3
	c0,1,0.8,1.9,1.9,1.9h13.8c2.4,0,3.8-0.9,5.1-3.1l18.6-30.8c1.8-2.9,4.6-4.5,7.9-4.5C139.7,0.3,142.3,1.7,144.2,4.7L144.2,4.7z"/>
<path class="st2" d="M7.3,1.2h33.8c4,0,7.2,3.1,7.2,7v0.5c0,4-3.2,7.2-7.2,7.2H7.3c-4,0-7.3-3.2-7.3-7.2V8.2C0,4.2,3.3,1.2,7.3,1.2
	L7.3,1.2z"/>
</svg>
