<?xml version="1.0" encoding="utf-8"?>
<!-- Generator: Adobe Illustrator 25.3.0, SVG Export Plug-In . SVG Version: 6.00 Build 0)  -->
<svg version="1.1" id="Capa_1" xmlns="http://www.w3.org/2000/svg" xmlns:xlink="http://www.w3.org/1999/xlink" x="0px" y="0px"
	 viewBox="0 0 60 60" style="enable-background:new 0 0 60 60;" xml:space="preserve">
<style type="text/css">
	.st0{fill-rule:evenodd;clip-rule:evenodd;}
</style>
<g>
	<path class="st0" d="M6.7,15.8C4.9,15.8,0,14.7,0,9.4c0-5.3,4.7-6.4,6.6-6.4c1.9,0,3.9,0.3,5.1,1.1l0,0v2.5l0,0
		c0,0.3-0.4,0.3-0.4,0c0-0.4-1.1-2.9-3.9-2.9c-3,0.1-5.1,2.4-5.1,5.6c0,3.1,2,5.8,5,5.7c1,0,2-0.3,2.5-0.7l0,0l0-2.7l0,0
		c0-0.8-0.5-1.1-0.9-1.1c-0.3,0-0.3-0.4,0-0.4l0,0h4.1l0,0c0.3,0,0.3,0.5,0,0.4c-0.5,0-0.9,0.3-0.9,1.1l0,0v2.8l0,0
		C10.9,15.3,8.5,15.8,6.7,15.8L6.7,15.8L6.7,15.8L6.7,15.8z"/>
	<path class="st0" d="M34.6,15.8c1.8,0,4.1-0.9,5.3-1.8l0,0v-2.3l0,0c0-0.3-0.2-0.4-0.3,0c-0.1,0.4-1.5,3.4-4.5,3.4
		c-3,0.1-4.9-2.7-4.9-5.8c0-3.1,2-5.6,5.1-5.6c2.8-0.1,3.9,2.5,3.9,3c0,0.3,0.3,0.3,0.3,0l0,0V4.2l0,0c-1.2-0.8-3.1-1.3-5-1.3
		c-1.9,0-6.6,1.3-6.6,6.5C27.8,14.7,32.8,15.8,34.6,15.8L34.6,15.8L34.6,15.8L34.6,15.8z"/>
	<path class="st0" d="M59.7,15.1c-0.5,0-0.9-0.3-0.9-1.1l0,0V4.7l0,0c0-0.8,0.5-1.1,0.9-1.1c0.4,0,0.4-0.4,0-0.4l0,0h-4.1l0,0
		c-0.4,0-0.4,0.4,0,0.4c0.5,0,0.9,0.3,0.9,1.1l0,0V14l0,0c0,0.8-0.5,1.1-0.9,1.1c-0.4,0-0.4,0.6,0,0.6l0,0h4.1l0,0
		C60.1,15.6,60.1,15.1,59.7,15.1L59.7,15.1L59.7,15.1L59.7,15.1z"/>
	<path class="st0" d="M14.4,3.7c0.5,0,0.9,0.3,0.9,1.1l0,0l0,6.1l0,0c0,2.9,2.3,5.1,5.2,5.1c2.9,0,5.3-2.1,5.3-5.1l0,0l0.1-6.1l0,0
		c0-0.8,0.5-1.1,0.9-1.1c0.4,0,0.4-0.4,0-0.4l0,0H24l0,0c-0.4,0-0.4,0.4,0,0.4c0.5,0,0.9,0.3,0.9,1.1l0,0l0.1,6.4l0,0
		c0,2.1-1.7,4.2-3.7,4.2s-3.7-1.7-3.7-3.7l0,0l0-6.8l0,0c0-0.8,0.5-1.1,0.9-1.1c0.4,0,0.4-0.4,0-0.4l0,0h-4.1l0,0
		C13.9,3.2,13.9,3.7,14.4,3.7L14.4,3.7L14.4,3.7L14.4,3.7z"/>
	<path class="st0" d="M56.7,39.1c0,9.9-8.1,18-18,18c-2.9,0-5.6-0.7-8-1.9c-2.4,1.2-5.1,1.9-8,1.9c-9.9,0-18-8.1-18-18
		c0-9.9,8.1-18,18-18c2.9,0,5.6,0.7,8,1.9c2.4-1.2,5.1-1.9,8-1.9C48.6,21,56.7,29.1,56.7,39.1L56.7,39.1L56.7,39.1L56.7,39.1z
		 M53.2,39.1c0-8-6.5-14.5-14.5-14.5c-1.5,0-3,0.2-4.4,0.7c2.8,2.3,4.8,5.4,5.8,9l0,0l-3.7,0l0,0c-1.1-3-3.1-5.5-5.7-7.2
		c-2.6,1.7-4.6,4.3-5.6,7.2l0,0l-3.7,0l0,0c1-3.6,3-6.7,5.8-9c-1.4-0.4-2.9-0.7-4.4-0.7c-8,0-14.5,6.5-14.5,14.5
		c0,8,6.5,14.5,14.5,14.5c1.5,0,3-0.2,4.3-0.7c-3.6-3-5.9-7.4-6.3-12.3l0,0h8.6V44l-4.2,0.1l0,0c1.1,2.9,3,5.3,5.6,7
		c2.5-1.7,4.5-4.1,5.6-7l0,0L32.1,44v-3.5h8.6l0,0c-0.4,4.9-2.8,9.3-6.4,12.3c1.4,0.4,2.9,0.7,4.4,0.7C46.7,53.5,53.2,47,53.2,39.1
		L53.2,39.1L53.2,39.1L53.2,39.1z"/>
	<path class="st0" d="M48.4,15.8c1.8,0,4.1-0.9,5.3-1.8l0,0v-2.3l0,0c0-0.3-0.2-0.4-0.3,0c-0.1,0.4-1.5,3.4-4.5,3.4
		c-3,0.1-4.9-2.7-4.9-5.8c0-3.1,2-5.6,5.1-5.6c2.8-0.1,3.9,2.5,3.9,3c0,0.3,0.3,0.3,0.3,0l0,0V4.2l0,0c-1.2-0.8-3.1-1.3-5-1.3
		c-1.9,0-6.6,1.3-6.6,6.5C41.7,14.7,46.6,15.8,48.4,15.8L48.4,15.8L48.4,15.8L48.4,15.8z"/>
</g>
</svg>
