<?xml version="1.0" encoding="utf-8"?>
<!-- Generator: Adobe Illustrator 25.3.0, SVG Export Plug-In . SVG Version: 6.00 Build 0)  -->
<svg version="1.1" id="Calque_1" xmlns="http://www.w3.org/2000/svg" xmlns:xlink="http://www.w3.org/1999/xlink" x="0px" y="0px"
	 viewBox="0 0 226.1 123.9" style="enable-background:new 0 0 226.1 123.9;" xml:space="preserve">
<style type="text/css">
	.st0{fill:#C10A27;}
</style>
<path class="st0" d="M0,123.2v-21.2h4.7v1.8c0.8-0.8,2.6-2.6,5.8-2.6c1.8,0,4.6,0.8,6.4,2.9c2,2.3,2,5.9,2,7.5v11.4h-5.1v-10.4
	c0-1.8,0-6.8-4.3-6.8c-0.9,0-2.6,0.5-3.5,1.9c-0.9,1.3-0.9,3.5-0.9,5.3v10.1H0 M25.3,110.8h11.7c-0.6-3.4-3.2-5-5.7-5
	C29.4,105.9,26.2,106.9,25.3,110.8 M25.4,114.9c0.2,1.4,2.2,4.3,5.8,4.3c2.2,0,3.9-1,4.9-2.7h5.3c-1.2,3.8-5.3,7.4-10.2,7.4
	c-6.3,0-11.2-5-11.2-11.2c0-6,4.6-11.5,11.1-11.5c6.7,0,10.9,5.8,10.9,11.1c0,1-0.2,1.9-0.3,2.5H25.4z M48.6,123.2h3.1l4-13.7h0.1
	l4,13.7h3.1l7.7-21.2h-5.4L61.4,115h-0.1l-3.4-12.9h-4L50.3,115h-0.1l-3.8-12.9H41L48.6,123.2z M85.2,112.4c0,4.7,3.4,6.9,6.4,6.9
	c3.3,0,6.1-2.6,6.1-6.7c0-4.1-3-6.6-6.2-6.6C87.6,106,85.2,109.3,85.2,112.4 M80.5,95h5.1v9c1.7-1.8,4.2-2.6,6.6-2.6
	c6.4,0,10.6,5.6,10.6,11.2c0,4.2-2.8,11.4-10.5,11.4c-4.1,0-5.9-1.8-7.1-3.2v2.6h-4.6V95z M121.6,112.6c0-4.4-3.2-6.6-6.2-6.6
	c-4.2,0-6.3,3.6-6.3,6.7c0,3.6,2.7,6.5,6.3,6.5C119,119.3,121.6,116.5,121.6,112.6 M126.4,123.2h-4.7v-2.6c-1.6,1.9-4.7,3.3-7.4,3.3
	c-5.4,0-10.3-4.3-10.3-11.4c0-6.5,4.7-11.2,10.6-11.2c4.3,0,6.9,3.1,7,3.4h0.1v-2.7h4.7V123.2z M134.2,95h-5.1v28.2h5.1V95z
	 M153.2,112.6c0-4.4-3.2-6.6-6.2-6.6c-4.2,0-6.3,3.6-6.3,6.7c0,3.6,2.7,6.5,6.3,6.5C150.6,119.3,153.2,116.5,153.2,112.6 M158,123.2
	h-4.7v-2.6c-1.6,1.9-4.7,3.3-7.4,3.3c-5.5,0-10.3-4.3-10.3-11.4c0-6.5,4.7-11.2,10.6-11.2c4.3,0,6.9,3.1,7,3.4h0.1v-2.7h4.7V123.2z
	 M160.7,123.2h5.1v-10.1c0-1.8,0-4,0.9-5.3c0.9-1.4,2.6-1.9,3.5-1.9c4.3,0,4.3,5,4.3,6.8v10.4h5.1v-11.4c0-1.6,0-5.2-2-7.5
	c-1.7-2.1-4.5-2.9-6.4-2.9c-3.2,0-5,1.8-5.8,2.6v-1.8h-4.7V123.2 M197.5,116.3c-1.3,2.1-3,2.9-4.7,2.9c-3.8,0-6.4-3-6.4-6.6
	c0-4.3,3.1-6.6,6.1-6.6c3.1,0,4.3,2,4.9,3.1h5.7c-2.2-6.5-8-7.7-10.6-7.7c-5.8,0-11.2,4.7-11.2,11.2c0,7,5.8,11.4,11.2,11.4
	c5,0,8.9-2.9,10.6-7.6H197.5 M209.2,110.8h11.7c-0.6-3.4-3.2-5-5.7-5C213.3,105.9,210.2,106.9,209.2,110.8 M209.4,114.9
	c0.2,1.4,2.2,4.3,5.8,4.3c2.3,0,3.9-1,4.9-2.7h5.3c-1.2,3.8-5.3,7.4-10.2,7.4c-6.3,0-11.2-5-11.2-11.2c0-6,4.6-11.5,11.1-11.5
	c6.7,0,10.9,5.8,10.9,11.1c0,1-0.2,1.9-0.3,2.5H209.4z M117.1,28.7l24.7,1.6l-1,1.6l-84.3,5.5L52.8,44l78.3,4.9l-0.9,1.6l-43.6,2.5
	l3.3,12.4l30.6,1.9l-1,1.6l-28.2,2l2.7,10.4l53.9,0c13,0,36.3-8.6,39-26.6c1.5-10.2-7.3-14.1-10.9-14.5c16.7-4.7,22.5-16,23.7-20.5
	C203.7,5,193.3,0,179.3,0l-45.7,0l-5.8,10l24.6,1.7l-0.9,1.7l-26.6,1.7L117.1,28.7 M161.3,15.9l7.5,0c3.2,0,5.7,3.8,3.9,8.3
	c-2,4.8-7.4,7.2-12.6,7.2l-7.8,0L161.3,15.9z M152.3,47c2.7,0,6.6,2.8,4.5,8.3c-2.3,5.9-9.7,8-13.8,8H134l9.4-16.3L152.3,47z
	 M35,74.9l-3.8,6.5l38.7,0l5.4-9.3L35,74.9z M74.3,6.5l37.2,2.3L109.2,0L78.1,0L74.3,6.5z M67.3,18.7l-3.7,6.5l53.2,3.5l-3.4-12.9
	L67.3,18.7z M45.7,56.2L42,62.7l37.5,2.1l6.8-11.7L45.7,56.2z"/>
</svg>
