<?xml version="1.0" encoding="utf-8"?>
<!-- Generator: Adobe Illustrator 25.3.0, SVG Export Plug-In . SVG Version: 6.00 Build 0)  -->
<svg version="1.1" id="Capa_1" xmlns="http://www.w3.org/2000/svg" xmlns:xlink="http://www.w3.org/1999/xlink" x="0px" y="0px"
	 viewBox="0 0 60 60" style="enable-background:new 0 0 60 60;" xml:space="preserve">
<g>
	<polygon points="18.3,30.6 14.2,30.6 14.7,23.4 12,30.6 8.1,30.6 14.2,14.4 18.3,14.4 17.9,21.6 20.6,14.4 24.4,14.4 	"/>
	<polygon points="18.8,30.6 24.9,14.4 28.8,14.4 22.7,30.6 	"/>
	<path d="M7.7,25c-5.4,6.3-10.4,14.7-6,18.6c4.3,3.7,9.8,1.5,13.5,0c3.7-1.5,44.6-19.2,44.6-19.2c0.4-0.2,0.3-0.4-0.2-0.3
		c-0.2,0-44.5,12.1-44.5,12.1C9.5,37.7,3.1,34.3,7.7,25z"/>
	<path d="M46.2,17.1l1-2.7h-7.7h0h-4l-4,4.9l1.9-4.9h-3.9l-6.1,16.3h3.8l2.6-6.8l0.2,6.8l11.8,0l1.1-3.1h-4.5l1.5-3.9h3.7l1.1-3H41
		l1.3-3.4H46.2z M33.8,29.5l-0.2-8.5l5.8-6.4L33.8,29.5z"/>
</g>
</svg>
