<?xml version="1.0" encoding="utf-8"?>
<!-- Generator: Adobe Illustrator 25.3.0, SVG Export Plug-In . SVG Version: 6.00 Build 0)  -->
<svg version="1.1" id="Capa_1" xmlns="http://www.w3.org/2000/svg" xmlns:xlink="http://www.w3.org/1999/xlink" x="0px" y="0px"
	 viewBox="0 0 1799.1 2466.6" style="enable-background:new 0 0 1799.1 2466.6;" xml:space="preserve">
<path d="M1,2.9C0.1,5-0.2,128.9,0.1,278.5L1,550.1l895.5,1.5c492.5,0.9,897.3,0.9,899.4,0.3c3-0.6,3.6-57.3,3-276.1L1798,0.9
	L900.1,0C183.4-0.6,1.9,0,1,2.9L1,2.9z M1180.1,648.3c-0.6,3.6-1.8,45.4-2.7,93.4c-1.2,73.1-0.6,87.2,3,88.7
	c2.4,0.9,63,1.8,134.9,1.8c71.9,0.3,132.5,1.5,134.6,3c5.1,3,2.4,7.5-16.1,27.5c-8.4,8.7-29,31.3-46.3,50.1
	c-17,18.8-32.5,35.8-34.3,37.6c-55.8,60-100.6,105.7-259.1,264.5c-104.5,104.8-191.6,190.4-194.3,190.4c-2.4,0-4.8-1.2-5.4-2.7
	c-0.3-1.5-104.5-107.5-230.7-235.2c-126.6-127.8-246-249-265.7-269.6s-38.8-40-42.1-43.6c-3.6-3.3-7.5-9.3-8.7-13.1l-2.1-6.9
	l27.8,1.8c15.5,1.2,76.4,2.1,135.2,2.1c84.8,0.3,107.8-0.6,109.9-3.6c1.2-2.1,2.1-44.8,1.5-94.9l-0.6-91l-65.7-1.8
	c-36.1-1.2-173.4-2.1-305.1-2.4L8.5,644.1L8.2,700c0,31-0.6,61.5-0.9,68.1c-0.6,6.6-1.2,122.1-1.5,256.4
	c-0.6,197.3,0.3,245.1,3.3,246.9c6.6,4.2,179.7,3.3,183.9-0.9c2.7-2.7,3.6-40.3,3.6-150.1c0-80.9,0.9-147.5,1.8-148.7
	c1.2-0.9,12.2,9.3,25.1,22.7s72.8,74.3,133.4,135.5c60.3,60.9,176.7,178.2,258.5,260.6c81.5,82.4,148.4,151.6,148.4,154
	c0,5.1,21.2-16.7-241.5,249c-119.1,120.6-240,243.3-268.7,272.5c-28.7,29-53.4,52.8-54.6,52.8c-1.2,0-2.7-63.6-3-141.2l-0.9-140.9
	l-92.8-0.9l-92.8-0.6l-1.8,31.9C6.4,1885,4,2022.6,1.9,2173.4c-3,237.6-3,274.6,0.9,277c2.4,1.5,129.9,2.4,310.1,1.8l306-0.6
	l0.9-92.2c0.6-71.9-0.3-92.8-3-94.9c-2.1-1.2-65.4-2.4-140.3-2.4c-107.5,0-136.7-0.9-136.7-3.9c0-4.2,37.9-42.7,337.3-345.7
	c115.8-117,213.4-215.8,217-219.7c3.6-3.9,8.4-6.9,10.7-6.9s18.8,15.2,36.7,34c37,38.8,511,517.6,526,531
	c20,18.5,24.8,17.9-137.3,16.7l-147.2-1.2l-1.8,91c-1.8,72.2-1.2,91.9,1.8,95.2c3,3.3,38.8,4.5,185.4,6.6
	c100,1.5,236.1,3.9,302.4,5.7c66.6,1.5,121.8,2.1,123,0.9c3-3.6,3.3-176.4,0-291.9c-1.5-55.8-2.7-154.6-3-219.4
	c-0.3-64.8-1.5-119.7-2.7-121.5c-1.8-3-22.7-3.3-94.9-1.5l-92.2,2.1v136.4c0,74.9-0.9,137.3-2.4,138.5c-1.2,1.2-31.9-27.8-68.4-64.8
	c-36.4-36.7-160.3-162.1-275.2-278.2c-115.2-116.4-210.4-213.7-211.6-216.1c-3.3-5.4-0.9-7.8,152.2-162.1
	c171.6-173.1,223-225.4,315.8-319.7c46-46.6,84.8-84.8,86.6-84.8c2.1,0,3.6,49.9,4.5,149.3l1.5,149.3h185.1l2.4-310.4
	c1.5-200.9,1.5-312.5-0.6-316.7c-2.7-6.3-4.5-6.6-96.4-8.4c-51.3-0.9-187.8-2.1-303.3-2.7l-209.6-1.2L1180.1,648.3z"/>
</svg>
