<?xml version="1.0" encoding="utf-8"?>
<!-- Generator: Adobe Illustrator 25.3.0, SVG Export Plug-In . SVG Version: 6.00 Build 0)  -->
<svg version="1.1" id="Capa_1" xmlns="http://www.w3.org/2000/svg" xmlns:xlink="http://www.w3.org/1999/xlink" x="0px" y="0px"
	 viewBox="0 0 166.6 82.6" style="enable-background:new 0 0 166.6 82.6;" xml:space="preserve">
<style type="text/css">
	.st0{fill-rule:evenodd;clip-rule:evenodd;}
</style>
<path class="st0" d="M89.8,0c-0.5,0.1-1.1,2.1-2.1,3.1c-0.8,0.8-1.7,0.7-2.2,1.6c-0.2,0.3-0.1,0.9-0.4,1.5c-0.4,1.1-1.9,1.2-1.9,2.5
	c0,1.3,1.3,1.6,2.4,2.6c0.9,0.8,0.9,1.3,2,1.7c0.9,0.3,2.2-0.7,3.4-0.3c1,0.3,1.9,0.5,2.1,1.5c0.2,0.9,0,2.4-1.2,2.2
	c-0.4,0-2.1-0.6-4.2-0.4c-2.6,0.3-5.5,1.1-5.8,4c-0.2,1.6,1.8,3.5,3.7,3.1c1.3-0.3,0.7-1.8,1.4-2.6c0.9-1,6.3,3.4,11.2,3.4
	c2.1,0,3.6-0.5,5.2-2.1c0.1-0.1,0.3-0.4,0.5-0.4c0.2,0,0.6,0.2,0.7,0.3c4,3.2,7,9.6,21.7,9.7c2.1,0,4.4,1,6.3,2.7
	c1.7,1.6,2.7,4,3.7,6.5c1.5,3.7,4.1,7.4,8.1,11.4c0.2,0.2,3.5,2.8,3.8,3c0,0,0.3,0.6,0.2,0.9c-0.1,2.4-0.5,9.5,4.8,9.8
	c1.3,0.1,1-0.8,1-1.5c0-1.2-0.2-2.5,0.4-3.7c0.9-1.7-1.9-2.5-1.8-6.3c0.1-2.8-2.3-2.3-3.5-4.4c-0.7-1.2-1.3-1.9-1.3-3.4
	c0.3-8.5-1.8-14.1-2.8-15.4c-0.8-1-1.5-1.4-0.7-1.9c4.4-2.9,5.4-5.6,5.4-5.6c2.3-5.5,4.4-10.5,7.3-12.7c0.6-0.5,2.1-1.6,3-2
	c2.7-1.3,4.1-2.1,4.9-2.8c1.2-1.2,2.2-3.7,1-5.3c-1.5-1.9-4-0.4-5.2,0.3c-8.1,4.8-9.3,13.3-12.1,18.1c-2.2,3.9-5.9,6.7-9.1,7
	c-2.4,0.2-5.1-0.3-7.7-1.5c-6.4-2.8-9.8-6.4-10.7-7c-1.7-1.3-15-14.3-25.7-14.9c0,0-1.3-2.7-1.7-2.7c-0.8-0.1-1.6,1.6-2.2,1.8
	C91.3,1.9,90.4-0.1,89.8,0L89.8,0z"/>
<path class="st0" d="M42.5,77.7c-1,0-1.9-0.9-1.9-1.9l0-33.5h-11v37c0,1.8,1.5,3.3,3.3,3.3h19.3c1.8,0,3.3-1.5,3.3-3.3v-37h-11
	l0,33.5C44.4,76.9,43.5,77.7,42.5,77.7L42.5,77.7z"/>
<path class="st0" d="M79.5,42.3H62.8c-2,0-3.6,1.6-3.6,3.6v36.6h11.1V49c0-1,0.8-1.8,1.9-1.8c1,0,1.9,0.8,1.9,1.8v33.6h11V48.9
	c0-1,0.8-1.8,1.9-1.8c1,0,1.9,0.8,1.9,1.8v33.6h11.1V45.9c0-2-1.6-3.6-3.6-3.6H79.5L79.5,42.3z"/>
<path class="st0" d="M22.2,72.4H11v10.1H0V42.3h22.3c2,0,3.6,1.6,3.6,3.6v22.9C25.8,70.8,24.2,72.4,22.2,72.4L22.2,72.4z M14.8,49
	c0-1.1-0.9-1.9-1.9-1.9H11v20.4h1.9c1,0,1.9-0.8,1.9-1.9V49L14.8,49z"/>
<path class="st0" d="M118.3,82.6V72.5h-3.8v10.1h-11V45.9c0-2,1.6-3.6,3.6-3.6h18.6c2,0,3.6,1.6,3.6,3.6v36.6H118.3L118.3,82.6z
	 M118.3,67.5V48.9c0-1-0.9-1.8-1.9-1.8c-1,0-1.9,0.8-1.9,1.8v18.5H118.3L118.3,67.5z"/>
</svg>
