<?xml version="1.0" encoding="utf-8"?>
<!-- Generator: Adobe Illustrator 25.3.0, SVG Export Plug-In . SVG Version: 6.00 Build 0)  -->
<svg version="1.1" id="Capa_1" xmlns="http://www.w3.org/2000/svg" xmlns:xlink="http://www.w3.org/1999/xlink" x="0px" y="0px"
	 viewBox="0 0 800 600.1" style="enable-background:new 0 0 800 600.1;" xml:space="preserve">
<path d="M795.2,74.5c0,0-22.9-17.8-97.2-45C632.8,5.5,583,0,583,0l0.2,142.3c0,60.1-67.9,124-184,124h-3.3c-116,0-184-63.8-184-124
	L212.2,0c0,0-49.7,5.5-115,29.5C22.9,56.8,0,74.5,0,74.5c5.5,114.1,182.8,208.1,397.5,208.2h0C612.4,282.6,789.7,188.6,795.2,74.5"
	/>
<path d="M795.3,394c0,0-22.9,17.7-97.2,45c-65.2,24-115,29.5-115,29.5l0.3-142.2c0-60.1-68-123.9-184-123.9l-1.6,0h-0.1l-1.6,0
	c-116.1,0-184,63.8-184,123.9l0.3,142.2c0,0-49.8-5.5-115-29.5c-74.3-27.3-97.2-45-97.2-45c5.5-114.1,182.8-208.1,397.6-208.2
	C612.5,185.9,789.8,279.9,795.3,394 M38.7,599.8c-18.1,0-18.4-13.8-18.4-19.1v-25.1c0-1.6-0.1-3.6,3.1-3.6h9.3
	c3.1,0,2.9,2.1,2.9,3.6v25.1c0,1.8,0.3,6.6,6.9,6.6h15.7c6.5,0,6.8-4.8,6.8-6.6v-25.1c0-1.5-0.2-3.6,2.8-3.6h9.5
	c3.4,0,3.1,2.1,3.1,3.6v25.1c0,5.3-0.4,19.1-18.5,19.1 M125.4,596.8c-6.4-8.6-15.5-19.4-24.8-30.9v30.6c0,1.4,0.3,3.4-2.9,3.4H89
	c-3.1,0-2.8-2-2.8-3.4v-40.9c0-1.4-0.1-3.5,2.8-3.5h17c4.8,0,11.7,9.7,16.1,16.1c3.5,4.8,9.9,12.2,14.2,17.7v-30.3
	c0-1.4-0.2-3.5,3-3.5h9.5c3,0,2.8,2.1,2.8,3.5v44.3h-17.5C130.5,599.8,128.9,600.1,125.4,596.8 M157.5,599.8v-47.7h42.2
	c2.6,0,19.9-0.3,19.9,17.9c0,18.6,2,29.9-19.5,29.9h-22.7l-4.9-10v10 M197.4,587.2c7.7,0,7.1-7.3,7.1-10.7c0-11.3-3.2-11.7-8.2-11.7
	h-24.1v22.4L197.4,587.2L197.4,587.2z M236,552.4h38.9c3.3,0,2.8,2.2,2.8,6.1c0,3.7,0.5,5.8-2.8,5.8h-30.7c-0.8,0-3.6-0.4-3.6,2.5
	c0,2.9-0.5,4.1,2.5,4.1h27.2l4.4,8.7c0.6,1.2,0.6,2.3-1.8,2.3h-28.1l-4.4-8.5v12.5c0,2.9,2.6,2.4,3.3,2.4h31.9
	c3.2,0,2.9,2.2,2.9,5.8c0,3.9,0.3,6-2.9,6h-40.4c-3.4,0-9.9-1.1-9.9-11.6v-26.3C225.3,559.5,226.7,552.4,236,552.4 M288.3,552.1
	h42.5c5.7,0,14-0.1,14,15.3c0,10.1-2.1,10.6-6.7,13.7c7.7,1.3,6.6,11.1,6.6,16.2c0,2.6-0.9,2.5-1.7,2.5h-12.5c-2.6,0-2-4.1-2-6.3
	c0-5.8-3.3-5.6-4.6-5.6h-18.4c-1.8-3.1-5.2-9.9-5.2-9.9v19.8l-2.3,2h-12.5l-1.3-1.6v-42C284.3,553.2,286.4,552.1,288.3,552.1
	 M322.1,564.7h-18.9c-3.2,0-3,1-3,2v8.5h19.5c9.5,0,9.5-2.4,9.5-4.8C329.1,565.5,328.7,564.7,322.1,564.7 M418,552.4
	c3.1,0,6.2,1.4,9.4,7.8c2.2,4.6,17.7,32.5,20.9,38.3v1.6h-16.1l-4.6-8.4h-19.6l-4.2-9.6c-1.2,2-7.7,14.2-9.9,18h-16.1v-1
	c3.3-6.2,25.8-46.7,25.8-46.7 M413,565.6l-7.9,14.3l0.7,0.7h14.6l0.7-0.7l-7.5-14.4L413,565.6 M458.6,552.1h42.6
	c5.7,0,14-0.1,14,15.3c0,10.1-2.1,10.6-6.7,13.7c7.7,1.3,6.6,11.1,6.6,16.2c0,2.6-1,2.5-1.7,2.5h-12.5c-2.6,0-2-4.1-2-6.3
	c0-5.8-3.3-5.6-4.5-5.6H476c-1.8-3.1-5.2-9.9-5.2-9.9v19.8l-2.3,2h-12.6l-1.3-1.6v-42C454.7,553.2,456.8,552.1,458.6,552.1
	 M492.5,564.7h-19c-3.2,0-3,1-3,2v8.5H490c9.4,0,9.4-2.4,9.4-4.8C499.4,565.5,499.1,564.7,492.5,564.7 M552.3,599.8
	c-3.2-5.9-12-22.3-17.9-33.1v29.8c0,1.3,0.2,3.3-2.9,3.3h-8.6c-3.2,0-3-2.1-3-3.3v-40.9c0-1.5-0.2-3.5,3-3.5h14.9
	c2.2,0,5.4-0.5,8.9,6.6c2.7,5.7,8.3,17.5,12.2,23.7c3.9-6.2,9.7-18.1,12.4-23.7c3.5-7.1,6.5-6.6,9.1-6.6h14.8c3,0,2.7,2.1,2.7,3.5
	v40.9c0,1.3,0.5,3.3-2.7,3.3h-8.7c-3.2,0-2.9-2.1-2.9-3.3v-29.8c-6,10.8-14.7,27.2-18.1,33.1 M617,599.9
	c-14.1,0-13.5-15.1-13.5-24.9c0-9-1-23,16.6-23.1h31.4c17.7,0,16.5,14.2,16.5,23.1c0,9.9,0.7,24.9-13.6,24.9 M645.3,587.6
	c7.1,0,6.9-7.4,6.9-12.3c0-4.5,1.1-11.4-8.3-11.4h-15.8c-9.3,0-8.2,6.9-8.2,11.4c0,4.9-0.5,12.3,6.7,12.3H645.3z M691.7,599.8
	c-18.1,0-18.4-13.8-18.4-19.1v-25.1c0-1.6-0.1-3.6,3.1-3.6h9.4c3.1,0,2.9,2.1,2.9,3.6v25.1c0,1.8,0.3,6.6,6.9,6.6h15.7
	c6.5,0,6.8-4.8,6.8-6.6v-25.1c0-1.5-0.1-3.6,2.9-3.6h9.4c3.4,0,3.1,2.1,3.1,3.6v25.1c0,5.3-0.3,19.1-18.5,19.1 M743.5,552.1H786
	c5.7,0,14-0.1,14,15.3c0,10.1-2.2,10.6-6.7,13.7c7.7,1.3,6.7,11.1,6.7,16.2c0,2.6-1,2.5-1.7,2.5h-12.5c-2.6,0-2-4.1-2-6.3
	c0-5.8-3.3-5.6-4.6-5.6h-18.4c-1.8-3.1-5.2-9.9-5.2-9.9v19.8l-2.4,2h-12.5l-1.3-1.6v-42C739.5,553.2,741.7,552.1,743.5,552.1
	 M777.3,564.7h-18.9c-3.2,0-3,1-3,2v8.5h19.5c9.4,0,9.4-2.4,9.4-4.8C784.3,565.5,783.9,564.7,777.3,564.7"/>
</svg>
