<?xml version="1.0" encoding="utf-8"?>
<!-- Generator: Adobe Illustrator 25.3.0, SVG Export Plug-In . SVG Version: 6.00 Build 0)  -->
<svg version="1.1" id="Capa_1" xmlns="http://www.w3.org/2000/svg" xmlns:xlink="http://www.w3.org/1999/xlink" x="0px" y="0px"
	 viewBox="0 0 60 60" style="enable-background:new 0 0 60 60;" xml:space="preserve">
<style type="text/css">
	.st0{fill:#D51B22;}
	.st1{fill-rule:evenodd;clip-rule:evenodd;fill:#D51B22;}
</style>
<g>
	<g>
		<polygon class="st0" points="16.6,17.8 21.2,17.8 13.6,42 7.8,42 0,17.9 4.7,18 10.8,36.4 		"/>
		<rect x="16.6" y="17.8" class="st1" width="43.4" height="4.2"/>
		<path class="st0" d="M22,41.9h-4.2l4.7-16.4h4.4l4.7,16.4h-4.3l-0.5-2.1h-4.3L22,41.9z M26.1,36.3l-1.4-5.9l-1.4,5.9H26.1z"/>
		<polygon class="st0" points="37.1,25.6 41.8,34.5 41.7,30.7 41.7,25.6 45.8,25.6 45.8,41.9 41.8,41.9 37,33 37.3,36.8 37.3,41.9 
			33.1,41.9 33.1,25.6 		"/>
		<path class="st0" d="M59.3,30.3h-4.1c0-0.5-0.3-0.9-0.6-1.1c-0.2-0.2-0.6-0.4-1.1-0.4c-1,0-1.4,0.3-1.4,1c0,0.6,0.9,1.2,2.6,1.7
			c3.3,1,5,2.7,5,5.2c-0.1,3.6-2.1,5.5-6.2,5.5c-3.5-0.2-5.4-2-5.9-5.3h4.2c0.1,0.6,0.4,1,0.7,1.3c0.3,0.2,0.7,0.4,1.2,0.4
			c1.2,0,1.9-0.4,1.9-1.2c0-0.7-0.8-1.2-2.5-1.7c-3.4-1-5.1-2.8-5.1-5.3c0.1-3.4,2-5.1,5.7-5.2C57,25.2,58.9,26.9,59.3,30.3z"/>
	</g>
</g>
</svg>
